<svg xmlns="http://www.w3.org/2000/svg" xmlns:xlink="http://www.w3.org/1999/xlink" version="1.1" x="0px" y="0px" viewBox="0 0 100 100" enable-background="new 0 0 100 100" xml:space="preserve"><g><path d="M60.808,20.632l3.245,0.115c0.145-4.058-3.039-7.477-7.097-7.622l-0.116,3.245C59.109,16.451,60.888,18.363,60.808,20.632z   "></path><path d="M67.522,10.143c-2.756-2.959-6.498-4.668-10.539-4.812l-0.116,3.245c3.174,0.113,6.114,1.456,8.278,3.78   c2.164,2.325,3.293,5.353,3.18,8.527l3.245,0.116C71.714,16.957,70.277,13.102,67.522,10.143z"></path><path d="M59.402,62.137L58.53,59.77l0,0l-7.035-19.108h1.74v-3.168H50.43v-9.588h-2.686v9.588h-2.769v3.168h1.676L27.98,91.377   h-0.557v3.167h4.95v-3.167h-1.018l1.397-3.795l16.063-9.534l16.721,9.924l1.253,3.405h-0.989v3.167h4.95v-3.167h-0.584   L59.402,62.137z M49.073,43.251l5.137,13.955l-8.432-5.004L49.073,43.251z M34.488,82.869l4.026-10.935l7.2,4.272L34.488,82.869z    M39.626,68.911l5.039-13.686l11.281,6.695l2.482,6.741l-9.611,5.704L39.626,68.911z M51.92,76.207l7.621-4.522l4.261,11.574   L51.92,76.207z"></path></g><g><rect x="192.686" y="45.685" width="5.104" height="3.267"></rect><rect x="192.686" y="52.754" width="5.104" height="3.268"></rect><path d="M186.472,45.766h-43.618v40.128h43.618V45.766z M183.124,82.546h-36.921V49.115h36.921V82.546z"></path><path d="M179.327,36.397l-0.174-0.174l16.085-16.084l-1.959-1.958l-16.084,16.085L161.11,18.18l-1.958,1.958l16.084,16.084   l-0.174,0.174h-40.706V95.18h72.073V36.397H179.327z M202.94,91.691h-65.095V39.886h65.095V91.691z"></path></g><g><rect x="296.441" y="34.709" width="21.086" height="3.282"></rect><rect x="296.441" y="41.811" width="21.086" height="3.283"></rect><rect x="296.441" y="49.17" width="21.086" height="3.282"></rect><rect x="296.441" y="56.272" width="21.086" height="3.282"></rect><rect x="307.62" y="63.224" width="9.908" height="3.283"></rect><polygon points="290,94.171 292.402,90.13 294.804,94.171 294.804,83.581 290,83.581  "></polygon><rect x="263.52" y="34.709" width="21.086" height="3.282"></rect><rect x="263.52" y="41.811" width="21.086" height="3.283"></rect><rect x="263.52" y="49.17" width="21.086" height="3.282"></rect><rect x="263.52" y="56.272" width="21.086" height="3.282"></rect><path d="M253.793,23.331v59.26l36.105-3.873l36.309,3.871V23.331H253.793z M322.703,78.69l-32.805-3.498l-32.599,3.497V26.836   h65.404V78.69z"></path></g><g><rect x="432.635" y="59.226" width="5.264" height="3.37"></rect><rect x="424.5" y="66.517" width="13.399" height="3.369"></rect><rect x="424.5" y="73.534" width="13.399" height="3.369"></rect><path d="M446.46,34.485v15.039h-69.369v45.722h69.841V54.828h2.898V34.485H446.46z M443.09,91.404h-62.156V53.366h62.156V91.404z"></path><path d="M400.072,88.669c8.979,0,16.285-7.305,16.285-16.284c0-8.98-7.306-16.286-16.285-16.286s-16.285,7.306-16.285,16.286   C383.788,81.364,391.093,88.669,400.072,88.669z M400.072,59.788c6.946,0,12.598,5.651,12.598,12.598   c0,6.946-5.651,12.597-12.598,12.597c-6.946,0-12.596-5.651-12.596-12.597C387.476,65.438,393.126,59.788,400.072,59.788z"></path></g></svg>